<mxfile host="app.diagrams.net" modified="2020-12-20T03:47:05.002Z" agent="5.0 (Windows NT 10.0; Win64; x64) AppleWebKit/537.36 (KHTML, like Gecko) Chrome/87.0.4280.88 Safari/537.36" etag="M2UU5y_N0WHoh2VVeauV" version="14.1.1" type="github">
  <diagram id="07fea595-8f29-1299-0266-81d95cde20df" name="Page-1">
    <mxGraphModel dx="-1622" dy="-449" grid="1" gridSize="10" guides="1" tooltips="1" connect="1" arrows="1" fold="1" page="1" pageScale="1" pageWidth="1169" pageHeight="827" background="#FFFFFF" math="0" shadow="0">
      <root>
        <mxCell id="0" />
        <mxCell id="1" parent="0" />
        <mxCell id="727" value="" style="edgeStyle=none;html=1;fontColor=#000000;strokeWidth=3;strokeColor=#82b366;fillColor=#d5e8d4;" parent="1" edge="1">
          <mxGeometry width="100" height="100" relative="1" as="geometry">
            <mxPoint x="2438.5" y="1601.5" as="sourcePoint" />
            <mxPoint x="2439" y="1197" as="targetPoint" />
          </mxGeometry>
        </mxCell>
        <mxCell id="734" value="" style="edgeStyle=none;html=1;fontColor=#000000;strokeWidth=3;strokeColor=#82b366;fillColor=#d5e8d4;" parent="1" edge="1">
          <mxGeometry width="100" height="100" relative="1" as="geometry">
            <mxPoint x="2437" y="1601" as="sourcePoint" />
            <mxPoint x="2889.5" y="1601.31" as="targetPoint" />
          </mxGeometry>
        </mxCell>
        <mxCell id="735" value="&lt;font color=&quot;#b9e0a5&quot;&gt;公司价值观&lt;/font&gt;" style="text;spacingTop=-5;html=1;fontSize=18;fontStyle=0;points=[];strokeColor=none;" parent="1" vertex="1">
          <mxGeometry x="2900" y="1582.5" width="80" height="20" as="geometry" />
        </mxCell>
        <mxCell id="736" value="&lt;font color=&quot;#b9e0a5&quot;&gt;低&lt;/font&gt;" style="text;spacingTop=-5;align=center;verticalAlign=middle;fontStyle=0;html=1;fontSize=18;points=[];strokeColor=none;" parent="1" vertex="1">
          <mxGeometry x="2497.5" y="1610" width="120" height="30" as="geometry" />
        </mxCell>
        <mxCell id="737" value="&lt;font color=&quot;#b9e0a5&quot;&gt;中&lt;/font&gt;" style="text;spacingTop=-5;align=center;verticalAlign=middle;fontStyle=0;html=1;fontSize=18;points=[];strokeColor=none;" parent="1" vertex="1">
          <mxGeometry x="2617.5" y="1610" width="120" height="30" as="geometry" />
        </mxCell>
        <mxCell id="738" value="&lt;font color=&quot;#b9e0a5&quot;&gt;高&lt;/font&gt;" style="text;spacingTop=-5;align=center;verticalAlign=middle;fontStyle=0;html=1;fontSize=18;points=[];strokeColor=none;" parent="1" vertex="1">
          <mxGeometry x="2737.5" y="1610" width="120" height="30" as="geometry" />
        </mxCell>
        <mxCell id="739" value="" style="whiteSpace=wrap;fillColor=#12AAB5;gradientColor=none;gradientDirection=east;strokeColor=none;html=1;fontColor=#23445d;" parent="1" vertex="1">
          <mxGeometry x="3257.5" y="994.5" width="35.000000000000114" height="30.000000000000227" as="geometry" />
        </mxCell>
        <mxCell id="740" value="" style="whiteSpace=wrap;fillColor=#F08705;gradientColor=none;gradientDirection=east;strokeColor=none;html=1;fontColor=#23445d;" parent="1" vertex="1">
          <mxGeometry x="3257.4999999999995" y="954.4999999999999" width="35.000000000000114" height="30.000000000000227" as="geometry" />
        </mxCell>
        <mxCell id="741" value="" style="whiteSpace=wrap;fillColor=#E85642;gradientColor=none;gradientDirection=east;strokeColor=none;html=1;fontColor=#23445d;" parent="1" vertex="1">
          <mxGeometry x="3257.5" y="914.5" width="35.000000000000114" height="30.000000000000114" as="geometry" />
        </mxCell>
        <mxCell id="742" value="Type 1" style="text;spacingTop=-5;html=1;points=[];fontSize=15;" parent="1" vertex="1">
          <mxGeometry x="3297.5" y="919.5000000000001" width="80" height="20" as="geometry" />
        </mxCell>
        <mxCell id="743" value="Type 2" style="text;spacingTop=-5;html=1;points=[];fontSize=15;" parent="1" vertex="1">
          <mxGeometry x="3297.5" y="959.5000000000001" width="80" height="20" as="geometry" />
        </mxCell>
        <mxCell id="744" value="Type 3" style="text;spacingTop=-5;html=1;points=[];fontSize=15;" parent="1" vertex="1">
          <mxGeometry x="3297.5" y="999.5000000000001" width="80" height="20" as="geometry" />
        </mxCell>
        <mxCell id="745" value="&lt;font color=&quot;#b9e0a5&quot;&gt;业绩/能力&lt;/font&gt;" style="text;spacingTop=-5;html=1;fontSize=18;fontStyle=0;points=[]" parent="1" vertex="1">
          <mxGeometry x="2397.5" y="1160" width="80" height="20" as="geometry" />
        </mxCell>
        <mxCell id="746" value="&lt;font color=&quot;#b9e0a5&quot;&gt;低&lt;/font&gt;" style="text;spacingTop=-5;align=center;verticalAlign=middle;fontStyle=0;html=1;fontSize=18;points=[]" parent="1" vertex="1">
          <mxGeometry x="2380" y="1420.0000000000002" width="30" height="129.99999999999977" as="geometry" />
        </mxCell>
        <mxCell id="747" value="&lt;font color=&quot;#b9e0a5&quot;&gt;中&lt;/font&gt;" style="text;spacingTop=-5;align=center;verticalAlign=middle;fontStyle=0;html=1;fontSize=18;points=[]" parent="1" vertex="1">
          <mxGeometry x="2380" y="1290" width="30" height="129.99999999999977" as="geometry" />
        </mxCell>
        <mxCell id="748" value="&lt;font color=&quot;#b9e0a5&quot;&gt;高&lt;/font&gt;" style="text;spacingTop=-5;align=center;verticalAlign=middle;fontStyle=0;html=1;fontSize=18;points=[]" parent="1" vertex="1">
          <mxGeometry x="2380" y="1176" width="30" height="129.99999999999977" as="geometry" />
        </mxCell>
        <mxCell id="749" value="&lt;font style=&quot;font-size: 30px;&quot;&gt;Diagram title&lt;/font&gt;" style="text;spacingTop=-5;align=center;verticalAlign=middle;fontSize=30;fontStyle=1;html=1;points=[]" parent="1" vertex="1">
          <mxGeometry x="2437.5" y="854.5" width="810" height="45" as="geometry" />
        </mxCell>
        <mxCell id="U7ZelPJluDHWmrLzTlLS-753" value="" style="endArrow=none;html=1;exitX=0.521;exitY=0.117;exitDx=0;exitDy=0;exitPerimeter=0;strokeWidth=3;strokeColor=#82b366;fillColor=#d5e8d4;" edge="1" parent="1">
          <mxGeometry width="50" height="50" relative="1" as="geometry">
            <mxPoint x="2560.02" y="1602.01" as="sourcePoint" />
            <mxPoint x="2560" y="1233" as="targetPoint" />
          </mxGeometry>
        </mxCell>
        <mxCell id="U7ZelPJluDHWmrLzTlLS-756" value="" style="endArrow=none;html=1;exitX=0.521;exitY=0.117;exitDx=0;exitDy=0;exitPerimeter=0;strokeWidth=3;strokeColor=#82b366;fillColor=#d5e8d4;" edge="1" parent="1">
          <mxGeometry width="50" height="50" relative="1" as="geometry">
            <mxPoint x="2679.02" y="1601.5" as="sourcePoint" />
            <mxPoint x="2679" y="1240" as="targetPoint" />
          </mxGeometry>
        </mxCell>
        <mxCell id="U7ZelPJluDHWmrLzTlLS-757" value="" style="endArrow=none;html=1;exitX=0.521;exitY=0.117;exitDx=0;exitDy=0;exitPerimeter=0;strokeWidth=3;strokeColor=#82b366;fillColor=#d5e8d4;" edge="1" parent="1">
          <mxGeometry width="50" height="50" relative="1" as="geometry">
            <mxPoint x="2800.02" y="1601.5" as="sourcePoint" />
            <mxPoint x="2800" y="1241" as="targetPoint" />
          </mxGeometry>
        </mxCell>
        <mxCell id="U7ZelPJluDHWmrLzTlLS-758" value="" style="endArrow=none;html=1;strokeWidth=3;strokeColor=#82b366;fillColor=#d5e8d4;" edge="1" parent="1">
          <mxGeometry width="50" height="50" relative="1" as="geometry">
            <mxPoint x="2440.5" y="1240" as="sourcePoint" />
            <mxPoint x="2800.5" y="1240" as="targetPoint" />
          </mxGeometry>
        </mxCell>
        <mxCell id="U7ZelPJluDHWmrLzTlLS-759" value="" style="endArrow=none;html=1;strokeWidth=3;strokeColor=#82b366;fillColor=#d5e8d4;" edge="1" parent="1">
          <mxGeometry width="50" height="50" relative="1" as="geometry">
            <mxPoint x="2439.5" y="1360" as="sourcePoint" />
            <mxPoint x="2799.5" y="1360" as="targetPoint" />
          </mxGeometry>
        </mxCell>
        <mxCell id="U7ZelPJluDHWmrLzTlLS-760" value="" style="endArrow=none;html=1;strokeWidth=3;strokeColor=#82b366;fillColor=#d5e8d4;" edge="1" parent="1">
          <mxGeometry width="50" height="50" relative="1" as="geometry">
            <mxPoint x="2438.5" y="1480" as="sourcePoint" />
            <mxPoint x="2799" y="1480" as="targetPoint" />
            <Array as="points">
              <mxPoint x="2618.5" y="1480" />
            </Array>
          </mxGeometry>
        </mxCell>
        <mxCell id="U7ZelPJluDHWmrLzTlLS-763" value="小白兔" style="text;html=1;align=center;verticalAlign=middle;resizable=0;points=[];autosize=1;" vertex="1" parent="1">
          <mxGeometry x="2720" y="1550" width="50" height="20" as="geometry" />
        </mxCell>
        <mxCell id="U7ZelPJluDHWmrLzTlLS-764" value="狗" style="text;html=1;align=center;verticalAlign=middle;resizable=0;points=[];autosize=1;" vertex="1" parent="1">
          <mxGeometry x="2487.5" y="1540" width="30" height="20" as="geometry" />
        </mxCell>
        <mxCell id="U7ZelPJluDHWmrLzTlLS-765" value="野狗" style="text;html=1;align=center;verticalAlign=middle;resizable=0;points=[];autosize=1;" vertex="1" parent="1">
          <mxGeometry x="2482.5" y="1314.5" width="40" height="20" as="geometry" />
        </mxCell>
        <mxCell id="U7ZelPJluDHWmrLzTlLS-766" value="明星员工" style="text;html=1;align=center;verticalAlign=middle;resizable=0;points=[];autosize=1;" vertex="1" parent="1">
          <mxGeometry x="2710" y="1314.5" width="60" height="20" as="geometry" />
        </mxCell>
      </root>
    </mxGraphModel>
  </diagram>
</mxfile>
